<svg xmlns="http://www.w3.org/2000/svg" viewBox="0 0 800 220">
  <style>
    .azure-node { fill: #dae8fc; stroke: #6c8ebf; stroke-width: 2; }
    .rg-node { fill: #f5f5f5; stroke: #666666; stroke-width: 2; }
    .text { font-family: Arial; font-size: 11px; text-anchor: middle; }
  </style>

  <rect x="325" y="10" width="150" height="40" class="azure-node" />
  <text x="400" y="35" class="text">Tenant Root Group [cite: 17]</text>

  <path d="M 400 50 L 400 80" style="stroke:#6c8ebf;stroke-width:2;fill:none;" />

  <rect x="325" y="80" width="150" height="40" class="azure-node" />
  <text x="400" y="105" class="text">Bhakua: Global Admin [cite: 34, 39]</text>

  <path d="M 400 120 L 400 140 L 100 140 L 100 160" style="stroke:#666666;stroke-width:2;fill:none;" />
  <path d="M 300 140 L 300 160" style="stroke:#666666;stroke-width:2;fill:none;" />
  <path d="M 500 140 L 500 160" style="stroke:#666666;stroke-width:2;fill:none;" />
  <path d="M 700 140 L 700 160" style="stroke:#666666;stroke-width:2;fill:none;" />

  <rect x="50" y="160" width="100" height="40" class="rg-node" />
  <text x="100" y="185" class="text">rg-dev [cite: 52]</text>

  <rect x="250" y="160" width="100" height="40" class="rg-node" />
  <text x="300" y="185" class="text">rg-qa [cite: 53]</text>

  <rect x="450" y="160" width="100" height="40" class="rg-node" />
  <text x="500" y="185" class="text">rg-uat [cite: 54]</text>

  <rect x="650" y="160" width="100" height="40" class="rg-node" />
  <text x="700" y="185" class="text">rg-prod [cite: 55]</text>
</svg>